{
  "accessors": [
    {
      "bufferView": 2,
      "componentType": 5126,
      "count": 406,
      "max": [
        0.6494140625,
        2.123046875,
        2.21875
      ],
      "min": [
        -0.6494140625,
        0.003376007080078125,
        -3.0546875
      ],
      "type": "VEC3"
    },
    {
      "bufferView": 2,
      "byteOffset": 4872,
      "componentType": 5126,
      "count": 406,
      "max": [
        0.9999129772186279,
        0.26181560754776,
        0.999940812587738
      ],
      "min": [
        -0.9999129772186279,
        -0.5583359599113464,
        -0.6969395279884338
      ],
      "type": "VEC3"
    },
    {
      "bufferView": 1,
      "componentType": 5126,
      "count": 406,
      "max": [
        0.96044921875,
        0.96319580078125
      ],
      "min": [
        0.038238525390625,
        0.0546875
      ],
      "type": "VEC2"
    },
    {
      "bufferView": 1,
      "byteOffset": 3248,
      "componentType": 5126,
      "count": 406,
      "max": [
        0.96044921875,
        0.96319580078125
      ],
      "min": [
        0.038238525390625,
        0.0546875
      ],
      "type": "VEC2"
    },
    {
      "bufferView": 1,
      "byteOffset": 6496,
      "componentType": 5126,
      "count": 406,
      "max": [
        0.0,
        1.0
      ],
      "min": [
        0.0,
        1.0
      ],
      "type": "VEC2"
    },
    {
      "bufferView": 0,
      "componentType": 5125,
      "count": 1848,
      "type": "SCALAR"
    },
    {
      "bufferView": 2,
      "byteOffset": 9744,
      "componentType": 5126,
      "count": 13737,
      "max": [
        1.0849609375,
        3.0234375,
        2.31640625
      ],
      "min": [
        -1.0849609375,
        -0.06610107421875,
        -4.40234375
      ],
      "type": "VEC3"
    },
    {
      "bufferView": 2,
      "byteOffset": 174588,
      "componentType": 5126,
      "count": 13737,
      "max": [
        0.9999504685401917,
        1.0,
        0.9998787641525269
      ],
      "min": [
        -0.9999504685401917,
        -0.999992847442627,
        -1.0
      ],
      "type": "VEC3"
    },
    {
      "bufferView": 1,
      "byteOffset": 9744,
      "componentType": 5126,
      "count": 13737,
      "max": [
        0.99365234375,
        0.9951057434082031
      ],
      "min": [
        0.003444671630859375,
        0.0068359375
      ],
      "type": "VEC2"
    },
    {
      "bufferView": 1,
      "byteOffset": 119640,
      "componentType": 5126,
      "count": 13737,
      "max": [
        0.9619140625,
        0.9943771362304688
      ],
      "min": [
        0.0033416748046875,
        0.00439453125
      ],
      "type": "VEC2"
    },
    {
      "bufferView": 0,
      "byteOffset": 7392,
      "componentType": 5125,
      "count": 70923,
      "type": "SCALAR"
    },
    {
      "bufferView": 2,
      "byteOffset": 339432,
      "componentType": 5126,
      "count": 14428,
      "max": [
        0.896484375,
        2.833984375,
        2.392578125
      ],
      "min": [
        -0.896484375,
        -0.1761474609375,
        -4.50390625
      ],
      "type": "VEC3"
    },
    {
      "bufferView": 2,
      "byteOffset": 512568,
      "componentType": 5126,
      "count": 14428,
      "max": [
        0.9999607801437378,
        0.9998722672462463,
        0.9999876618385315
      ],
      "min": [
        -0.9999607801437378,
        -0.999997079372406,
        -0.9989829063415527
      ],
      "type": "VEC3"
    },
    {
      "bufferView": 1,
      "byteOffset": 229536,
      "componentType": 5126,
      "count": 14428,
      "max": [
        1.0009765625,
        1.000003457069397
      ],
      "min": [
        0.0,
        -0.0029296875
      ],
      "type": "VEC2"
    },
    {
      "bufferView": 1,
      "byteOffset": 344960,
      "componentType": 5126,
      "count": 14428,
      "max": [
        1.0009765625,
        1.000003457069397
      ],
      "min": [
        0.0,
        -0.0029296875
      ],
      "type": "VEC2"
    },
    {
      "bufferView": 1,
      "byteOffset": 460384,
      "componentType": 5126,
      "count": 14428,
      "max": [
        0.0,
        1.0
      ],
      "min": [
        0.0,
        1.0
      ],
      "type": "VEC2"
    },
    {
      "bufferView": 0,
      "byteOffset": 291084,
      "componentType": 5125,
      "count": 41568,
      "type": "SCALAR"
    },
    {
      "bufferView": 2,
      "byteOffset": 685704,
      "componentType": 5126,
      "count": 23841,
      "max": [
        1.0625,
        2.994140625,
        1.3037109375
      ],
      "min": [
        -1.0625,
        0.2998046875,
        -1.7060546875
      ],
      "type": "VEC3"
    },
    {
      "bufferView": 2,
      "byteOffset": 971796,
      "componentType": 5126,
      "count": 23841,
      "max": [
        0.9999983906745911,
        1.0,
        1.0
      ],
      "min": [
        -0.9999987483024597,
        -1.0,
        -0.9999886751174927
      ],
      "type": "VEC3"
    },
    {
      "bufferView": 1,
      "byteOffset": 575808,
      "componentType": 5126,
      "count": 23841,
      "max": [
        0.998046875,
        0.9976406097412109
      ],
      "min": [
        0.00334930419921875,
        0.00341796875
      ],
      "type": "VEC2"
    },
    {
      "bufferView": 1,
      "byteOffset": 766536,
      "componentType": 5126,
      "count": 23841,
      "max": [
        0.0,
        1.0
      ],
      "min": [
        0.0,
        1.0
      ],
      "type": "VEC2"
    },
    {
      "bufferView": 0,
      "byteOffset": 457356,
      "componentType": 5125,
      "count": 100989,
      "type": "SCALAR"
    }
  ],
  "asset": {
    "extras": {
      "author": "lazae (https://sketchfab.com/lazae)",
      "license": "CC-BY-4.0 (http://creativecommons.org/licenses/by/4.0/)",
      "source": "https://sketchfab.com/3d-models/star-wars-like-a-bantha-c622ebb761904fd8a72928637f7bc62d",
      "title": "Star Wars - Like a Bantha"
    },
    "generator": "Sketchfab-12.58.1",
    "version": "2.0"
  },
  "bufferViews": [
    {
      "buffer": 0,
      "byteLength": 861312,
      "name": "floatBufferViews",
      "target": 34963
    },
    {
      "buffer": 0,
      "byteLength": 957264,
      "byteOffset": 861312,
      "byteStride": 8,
      "name": "floatBufferViews",
      "target": 34962
    },
    {
      "buffer": 0,
      "byteLength": 1257888,
      "byteOffset": 1818576,
      "byteStride": 12,
      "name": "floatBufferViews",
      "target": 34962
    }
  ],
  "buffers": [
    {
      "byteLength": 3076464,
      "uri": "scene.bin"
    }
  ],
  "images": [
    {
      "uri": "textures/lambert2_baseColor.png"
    },
    {
      "uri": "textures/lambert3_baseColor.png"
    },
    {
      "uri": "textures/lambert4_baseColor.png"
    },
    {
      "uri": "textures/lambert5_baseColor.png"
    }
  ],
  "materials": [
    {
      "alphaMode": "BLEND",
      "doubleSided": true,
      "name": "lambert2",
      "pbrMetallicRoughness": {
        "baseColorFactor": [
          1.0,
          1.0,
          1.0,
          0.7239230012131371
        ],
        "baseColorTexture": {
          "index": 0
        },
        "metallicFactor": 0.0,
        "roughnessFactor": 0.6
      }
    },
    {
      "doubleSided": true,
      "name": "lambert3",
      "pbrMetallicRoughness": {
        "baseColorTexture": {
          "index": 1
        },
        "metallicFactor": 0.0,
        "roughnessFactor": 0.6
      }
    },
    {
      "alphaMode": "BLEND",
      "doubleSided": true,
      "name": "lambert4",
      "pbrMetallicRoughness": {
        "baseColorTexture": {
          "index": 2
        },
        "metallicFactor": 0.0,
        "roughnessFactor": 0.6
      }
    },
    {
      "doubleSided": true,
      "name": "lambert5",
      "pbrMetallicRoughness": {
        "baseColorTexture": {
          "index": 3
        },
        "metallicFactor": 0.0,
        "roughnessFactor": 0.6
      }
    }
  ],
  "meshes": [
    {
      "name": "m_sheets_lambert2_0",
      "primitives": [
        {
          "attributes": {
            "NORMAL": 1,
            "POSITION": 0,
            "TEXCOORD_0": 2,
            "TEXCOORD_1": 3,
            "TEXCOORD_2": 4
          },
          "indices": 5,
          "material": 0,
          "mode": 4
        }
      ]
    },
    {
      "name": "m_body_lambert3_0",
      "primitives": [
        {
          "attributes": {
            "NORMAL": 7,
            "POSITION": 6,
            "TEXCOORD_0": 8,
            "TEXCOORD_1": 9
          },
          "indices": 10,
          "material": 1,
          "mode": 4
        }
      ]
    },
    {
      "name": "m_hairPlanes_lambert4_0",
      "primitives": [
        {
          "attributes": {
            "NORMAL": 12,
            "POSITION": 11,
            "TEXCOORD_0": 13,
            "TEXCOORD_1": 14,
            "TEXCOORD_2": 15
          },
          "indices": 16,
          "material": 2,
          "mode": 4
        }
      ]
    },
    {
      "name": "m_saddle_lambert5_0",
      "primitives": [
        {
          "attributes": {
            "NORMAL": 18,
            "POSITION": 17,
            "TEXCOORD_0": 19,
            "TEXCOORD_1": 20
          },
          "indices": 21,
          "material": 3,
          "mode": 4
        }
      ]
    }
  ],
  "nodes": [
    {
      "children": [
        1
      ],
      "matrix": [
        1.0,
        0.0,
        0.0,
        0.0,
        0.0,
        2.220446049250313e-16,
        -1.0,
        0.0,
        0.0,
        1.0,
        2.220446049250313e-16,
        0.0,
        0.0,
        0.0,
        0.0,
        1.0
      ],
      "name": "Sketchfab_model"
    },
    {
      "children": [
        2
      ],
      "matrix": [
        0.009999999776482582,
        0.0,
        0.0,
        0.0,
        0.0,
        0.0,
        0.009999999776482582,
        0.0,
        0.0,
        -0.009999999776482582,
        0.0,
        0.0,
        0.0,
        0.0,
        0.0,
        1.0
      ],
      "name": "c531f086badd40af863e0ccdfd754372.fbx"
    },
    {
      "children": [
        3
      ],
      "name": "RootNode"
    },
    {
      "children": [
        4,
        6,
        8,
        10
      ],
      "name": "bantha_01_mesh_lod0"
    },
    {
      "children": [
        5
      ],
      "name": "m_sheets"
    },
    {
      "mesh": 0,
      "name": "m_sheets_lambert2_0"
    },
    {
      "children": [
        7
      ],
      "name": "m_body"
    },
    {
      "mesh": 1,
      "name": "m_body_lambert3_0"
    },
    {
      "children": [
        9
      ],
      "name": "m_hairPlanes"
    },
    {
      "mesh": 2,
      "name": "m_hairPlanes_lambert4_0"
    },
    {
      "children": [
        11
      ],
      "name": "m_saddle"
    },
    {
      "mesh": 3,
      "name": "m_saddle_lambert5_0"
    }
  ],
  "samplers": [
    {
      "magFilter": 9729,
      "minFilter": 9987,
      "wrapS": 10497,
      "wrapT": 10497
    }
  ],
  "scene": 0,
  "scenes": [
    {
      "name": "Sketchfab_Scene",
      "nodes": [
        0
      ]
    }
  ],
  "textures": [
    {
      "sampler": 0,
      "source": 0
    },
    {
      "sampler": 0,
      "source": 1
    },
    {
      "sampler": 0,
      "source": 2
    },
    {
      "sampler": 0,
      "source": 3
    }
  ]
}
